<?xml version="1.0" encoding="UTF-8"?>
<svg xmlns="http://www.w3.org/2000/svg" width="700" height="600" viewBox="0 0 700 600">
	<mask id="bands">
		<rect fill="#fff" width="700" height="600"/>
		<rect y="251.4608" width="700" height="14.6343"/>
		<rect y="278.9422" width="700" height="14.6343"/>
		<rect y="306.4236" width="700" height="14.6343"/>
		<rect y="333.905" width="700" height="14.6343"/>
		<ellipse cx="350" cy="300" rx="103.8042" ry="93.7914"/>
	</mask>
	<g fill="#66db02" mask="url(#bands)">
		<path d="M0,101.108c61.398,22.3195,108.6274,72.6975,122.3078,151.663,5.3398,31.7086,4.9307,65.3016,1.3316,97.1174C113.3966,432.6165,73.5378,468.2851.001,513.5243c72.8384-16.8037,145.6739-80.7908,170.8408-163.6359,9.3603-31.5195,12.4741-65.0915,4.199-97.1174C155.1354,174.1416,77.6897,112.2038,0,101.108Z"/>
		<path d="M50.5719,54.5446s-.001,0-.001,0c97.9524,32.6532,156.7922,101.7101,171.174,198.2264,4.6626,32.5438,4.5058,65.1234-.0005,97.114-14.3422,95.9316-73.8945,164.1224-188.4746,208.4155,116.4681-26.2462,205.195-104.5606,235.5094-198.8895,9.308-28.9637,11.7928-94.9294,5.0334-122.8535-22.3828-92.4664-108.3612-160.1184-223.2406-182.0128Z"/>
		<path d="M306.9562,386.5992c-27.7632,96.4853-100.3695,183.7221-200.4928,213.4008,125.1031-24.986,213.9321-108.3032,253.3518-205.3355,17.5784-43.2696,25.4053-141.8692,11.5175-186.4606C338.8372,103.8674,239.0711,24.975,113.1175,0c102.9287,35.6997,171.8853,111.6537,196.3748,213.6508,10.0955,42.0468,9.4212,131.3928-2.5362,172.9484Z"/>
	</g>
	<g fill="#046bd6" mask="url(#bands)">
		<path d="M700,101.108c-61.398,22.3195-108.6274,72.6975-122.3078,151.663-5.3398,31.7086-4.9307,65.3016-1.3316,97.1174,10.2428,82.7281,50.1016,118.3967,123.6385,163.6359-72.8384-16.8037-145.6739-80.7908-170.8409-163.6359-9.3603-31.5195-12.4741-65.0915-4.199-97.1174,19.9054-78.6294,97.3511-140.5672,175.0408-151.663Z"/>
		<path d="M649.4281,54.5446s.001,0,.001,0c-97.9524,32.6532-156.7922,101.7101-171.174,198.2264-4.6626,32.5438-4.5058,65.1234.0005,97.114,14.3422,95.9316,73.8945,164.1224,188.4746,208.4155-116.4681-26.2462-205.195-104.5606-235.5094-198.8895-9.308-28.9637-11.7928-94.9294-5.0334-122.8535,22.3828-92.4664,108.3612-160.1184,223.2406-182.0128Z"/>
		<path d="M393.0438,386.5992c27.7632,96.4853,100.3695,183.7221,200.4928,213.4008-125.1031-24.986-213.9321-108.3032-253.3518-205.3355-17.5784-43.2696-25.4053-141.8692-11.5175-186.4606C361.1628,103.8674,460.9289,24.975,586.8825,0c-102.9287,35.6997-171.8853,111.6537-196.3748,213.6508-10.0955,42.0468-9.4212,131.3928,2.5362,172.9484Z"/>
	</g>
	<path fill="#66db02" d="M350,214.8417A85.1583,85.1583 0 01 350,385.1583Z"/>
	<path fill="#046bd6" d="M350,214.8417A85.1583,85.1583 0 00 350,385.1583Z"/>
</svg>